<svg xmlns="http://www.w3.org/2000/svg" width="114.025" height="128.969" viewBox="0 0 114.025 128.969">
  <path id="Icon_awesome-star-of-life" data-name="Icon awesome-star-of-life" d="M112.123,84.24,79.832,64.484l32.291-19.756a4.164,4.164,0,0,0,1.392-5.506L105.908,25.26a3.689,3.689,0,0,0-5.2-1.476L68.422,43.54V4.03A3.921,3.921,0,0,0,64.619,0H49.406a3.921,3.921,0,0,0-3.8,4.03V43.542L13.312,23.786a3.689,3.689,0,0,0-5.2,1.476L.51,39.222A4.165,4.165,0,0,0,1.9,44.729L34.193,64.484,1.9,84.24A4.165,4.165,0,0,0,.51,89.747l7.606,13.962a3.691,3.691,0,0,0,5.2,1.476L45.6,85.429v39.509a3.921,3.921,0,0,0,3.8,4.03H64.619a3.921,3.921,0,0,0,3.8-4.03V85.427l32.291,19.756a3.687,3.687,0,0,0,5.2-1.476l7.606-13.962A4.162,4.162,0,0,0,112.123,84.24Z" transform="translate(0)" fill="#e21e1e"/>
</svg>
